<?xml version="1.0" encoding="UTF-8"?>
<svg id="_Слой_2" data-name="Слой 2" xmlns="http://www.w3.org/2000/svg" viewBox="0 0 2285.73 270.59">
  <defs>
    <style>
      .cls-1 {
        fill: #706f6f;
      }

      .cls-2 {
        fill: #2aa1a9;
      }

      .cls-3 {
        fill: #84bcc2;
      }
    </style>
  </defs>
  <g id="Layer_1" data-name="Layer 1">
    <g>
      <g>
        <g>
          <rect class="cls-2" x="213.02" y="141.05" width="201.5" height="129.54" rx="11.51" ry="11.51"/>
          <path class="cls-2" d="M46.06,270.59h143.93c6.36,0,11.51-5.16,11.51-11.51v-106.51c0-6.36-5.16-11.51-11.51-11.51H11.51c-6.36,0-11.51,5.16-11.51,11.51v71.96c0,25.44,20.62,46.06,46.06,46.06Z"/>
          <path class="cls-2" d="M437.54,129.54h178.47c6.36,0,11.51-5.16,11.51-11.51V34.54c0-19.08-15.47-34.54-34.54-34.54h-155.44c-6.36,0-11.51,5.16-11.51,11.51v106.51c0,6.36,5.16,11.51,11.51,11.51Z"/>
        </g>
        <g>
          <path class="cls-3" d="M437.54,270.59h143.93c25.44,0,46.06-20.62,46.06-46.06v-71.96c0-6.36-5.16-11.51-11.51-11.51h-178.47c-6.36,0-11.51,5.16-11.51,11.51v106.51c0,6.36,5.16,11.51,11.51,11.51Z"/>
          <rect class="cls-3" x="213.02" width="201.5" height="129.54" rx="11.51" ry="11.51"/>
          <path class="cls-3" d="M11.51,129.54h178.47c6.36,0,11.51-5.16,11.51-11.51V11.51c0-6.36-5.16-11.51-11.51-11.51H34.54C15.47,0,0,15.47,0,34.54v83.48c0,6.36,5.16,11.51,11.51,11.51Z"/>
        </g>
      </g>
      <g>
        <g>
          <path class="cls-1" d="M755.56,203.04c-12.35,0-22.4-10.05-22.4-22.4v-90.57c0-12.35,10.05-22.4,22.4-22.4h155.27v23.17h-152.12v88.89h126.56v-32.79h-91.52v-23.3h117.08v79.4h-155.27Z"/>
          <path class="cls-1" d="M971.54,203.04c-12.35,0-22.4-10.05-22.4-22.4v-112.96h172.7v23.17h-147.15v32.79h143.07v23.3h-143.07v32.79h147.15v23.3h-150.3Z"/>
          <path class="cls-1" d="M1388.01,203.04c-12.36,0-22.41-10.05-22.41-22.41v-113.09h25.55v112.19h127.28v23.3h-130.42Z"/>
          <path class="cls-1" d="M1179.33,203.04c-12.35,0-22.4-10.05-22.4-22.4v-112.96h172.7v23.17h-147.15v32.79h143.08v23.3h-143.08v32.79h147.15v23.3h-150.3Z"/>
          <polygon class="cls-1" points="1555.1 203.04 1555.1 151.19 1471.45 67.54 1504.41 67.54 1567.88 131.01 1631.34 67.54 1664.3 67.54 1580.65 151.19 1580.65 203.04 1555.1 203.04"/>
        </g>
        <g>
          <path class="cls-1" d="M1806.2,68.4c.52,0,.78.26.78.77v8.79c0,.51-.26.77-.78.77h-38.95c-4.08,0-7.21,1.14-9.39,3.44-1.72,1.84-2.67,4.17-2.84,6.98-.46,8.44-.46,14.71,0,18.78.17,2.82,1.15,5.18,2.93,7.07,2.12,2.24,5.23,3.36,9.3,3.36h29.82v-13.52h-27.67c-.46,0-.69-.26-.69-.78v-8.87c0-.46.23-.69.69-.69h37.92c.52,0,.77.23.77.69v32.74c0,.51-.26.77-.77.77h-42.4c-7.01,0-12.61-2.01-16.8-6.03-3.91-3.73-6.03-8.5-6.38-14.31-.35-6.37-.35-12.89,0-19.56.35-5.86,2.44-10.63,6.29-14.31,4.25-4.08,9.88-6.12,16.89-6.12h41.28Z"/>
          <path class="cls-1" d="M1834.57,127.18l22.84-51.88c2.3-5.17,6.8-7.75,13.49-7.75s11.18,2.61,13.49,7.83l22.84,51.8c.23.51.29.9.17,1.16-.12.26-.32.39-.61.39h-11.11c-1.09,0-1.87-.51-2.33-1.55l-5.43-12.41h-34.04l-5.52,12.5c-.46.98-1.24,1.46-2.33,1.46h-11.03c-.64-.06-.78-.57-.43-1.55ZM1873.52,82.1c-.46-.92-.77-1.49-.95-1.73-.35-.4-.89-.6-1.64-.6-1.04,0-1.93.77-2.67,2.32l-9.83,22.32h24.91l-9.83-22.32Z"/>
          <path class="cls-1" d="M1934.04,69.18c0-.51.26-.77.77-.77h11.72c.52,0,.78.4.78,1.2v48.61h40.24c.52,0,.77.25.77.77v8.96c0,.51-.26.77-.77.77h-41.97c-3.68,0-6.52-.89-8.53-2.67-2.01-1.78-3.02-4.22-3.02-7.33v-49.55Z"/>
          <path class="cls-1" d="M2014.36,127.18l22.84-51.88c2.3-5.17,6.8-7.75,13.49-7.75s11.18,2.61,13.49,7.83l22.84,51.8c.23.51.29.9.17,1.16-.12.26-.32.39-.61.39h-11.11c-1.09,0-1.87-.51-2.33-1.55l-5.43-12.41h-34.04l-5.52,12.5c-.46.98-1.24,1.46-2.33,1.46h-11.03c-.64-.06-.78-.57-.43-1.55ZM2053.31,82.1c-.46-.92-.77-1.49-.95-1.73-.35-.4-.89-.6-1.64-.6-1.04,0-1.93.77-2.67,2.32l-9.83,22.32h24.91l-9.83-22.32Z"/>
          <path class="cls-1" d="M2184.77,68.4c.35,0,.57.16.69.47.11.32.05.59-.17.82l-27.66,28.52,27.66,29.13c.23.24.29.52.17.87-.12.35-.35.51-.69.51h-13.87c-1.09,0-1.98-.37-2.67-1.12l-19.13-21.03-19.13,21.03c-.69.75-1.58,1.12-2.67,1.12h-13.62c-.4,0-.66-.17-.77-.51-.12-.35.03-.72.43-1.13l27.06-27.91-27.75-29.47c-.29-.29-.37-.58-.26-.87.11-.29.37-.43.77-.43h14.13c1.09,0,1.98.37,2.67,1.12l19.13,21.38,19.13-21.38c.69-.75,1.58-1.12,2.67-1.12h13.87Z"/>
          <path class="cls-1" d="M2285.06,68.4c.35,0,.56.16.65.47.08.32-.05.68-.39,1.08l-30.59,35.42v22.58c0,.51-.26.77-.77.77h-11.72c-.52,0-.78-.26-.78-.77v-22.84l-30.51-35.16c-.35-.35-.46-.69-.35-1.04.12-.35.32-.51.61-.51h13.36c1.21,0,2.15.4,2.84,1.2l21.11,25.85,20.85-25.85c.69-.8,1.64-1.2,2.84-1.2h12.84Z"/>
        </g>
      </g>
    </g>
  </g>
</svg>